# xmcd
#
# Track frame offsets: 
#        150
#        20434
#        44077
#        59837
#        83271
#        105844
#        123418
#        147799
#        171992
#        197905
#
# Disc length: 2955 seconds
#
# Revision: 0
# Processed by: cddbd v1.5.1PL0 Copyright (c) Steve Scherf et al.
# Submitted via: ExactAudioCopy v0.90b4
#
DISCID=860b890a
DTITLE=Chris Barnett - Southbound
DYEAR=2003
DGENRE=Southern Rock
TTITLE0=Paradise in the Making
TTITLE1=Set This Bridge on Fire
TTITLE2=Without You
TTITLE3=Ballad of Robbie DeMars
TTITLE4=Anna Lee
TTITLE5=Flora-Bama Love Song
TTITLE6=Springtime by the Lakeside
TTITLE7=She's Gone
TTITLE8=The Guiding Light
TTITLE9=Southbound Train
EXTD=
EXTT0=
EXTT1=
EXTT2=
EXTT3=
EXTT4=
EXTT5=
EXTT6=
EXTT7=
EXTT8=
EXTT9=
PLAYORDER=
